<svg width="171" height="142" viewBox="0 0 171 142" fill="none" xmlns="http://www.w3.org/2000/svg">
<g filter="url(#filter0_d_339_153)">
<g filter="url(#filter1_b_339_153)">
<rect x="46" y="28" width="79" height="46" rx="23" fill="#D4F4F7" fill-opacity="0.12"/>
</g>
<g filter="url(#filter2_d_339_153)">
<rect x="60" y="26" width="52" height="50" rx="25" fill="#1A8993"/>
</g>
<circle cx="86" cy="51" r="19" fill="#1FA2AD"/>
</g>
<path d="M94 52.5H92C91.4477 52.5 91 52.0523 91 51.5V51.5C91 50.9477 90.5523 50.5 90 50.5H89H87" stroke="#D4F4F7"/>
<path d="M78 51H76" stroke="#D4F4F7"/>
<path d="M84 61L84 59C84 58.4477 84.4477 58 85 58V58C85.5523 58 86 57.5523 86 57L86 56L86 54" stroke="#D4F4F7"/>
<rect x="75" y="41" width="7" height="7" rx="1" fill="#D4F4F7"/>
<rect x="77" y="43" width="3" height="3" rx="1" fill="#1A8993"/>
<rect x="89" y="41" width="7" height="7" rx="1" fill="#D4F4F7"/>
<rect x="89" y="55" width="7" height="7" rx="1" fill="#D4F4F7"/>
<rect x="75" y="55" width="7" height="7" rx="1" fill="#D4F4F7"/>
<rect x="91" y="43" width="3" height="3" rx="1" fill="#1A8993"/>
<rect x="77" y="57" width="3" height="3" rx="1" fill="#1A8993"/>
<rect x="91" y="57" width="3" height="3" rx="1" fill="#1A8993"/>
<path d="M86 44V46.5C86 47.0523 85.5523 47.5 85 47.5H84.5C83.9477 47.5 83.5 47.9477 83.5 48.5V50C83.5 50.5523 83.0523 51 82.5 51H80" stroke="#D4F4F7"/>
<defs>
<filter id="filter0_d_339_153" x="0" y="0" width="171" height="142" filterUnits="userSpaceOnUse" color-interpolation-filters="sRGB">
<feFlood flood-opacity="0" result="BackgroundImageFix"/>
<feColorMatrix in="SourceAlpha" type="matrix" values="0 0 0 0 0 0 0 0 0 0 0 0 0 0 0 0 0 0 127 0" result="hardAlpha"/>
<feOffset dy="20"/>
<feGaussianBlur stdDeviation="23"/>
<feColorMatrix type="matrix" values="0 0 0 0 0.0315972 0 0 0 0 0.188304 0 0 0 0 0.201736 0 0 0 0.6 0"/>
<feBlend mode="normal" in2="BackgroundImageFix" result="effect1_dropShadow_339_153"/>
<feBlend mode="normal" in="SourceGraphic" in2="effect1_dropShadow_339_153" result="shape"/>
</filter>
<filter id="filter1_b_339_153" x="42" y="24" width="87" height="54" filterUnits="userSpaceOnUse" color-interpolation-filters="sRGB">
<feFlood flood-opacity="0" result="BackgroundImageFix"/>
<feGaussianBlur in="BackgroundImage" stdDeviation="2"/>
<feComposite in2="SourceAlpha" operator="in" result="effect1_backgroundBlur_339_153"/>
<feBlend mode="normal" in="SourceGraphic" in2="effect1_backgroundBlur_339_153" result="shape"/>
</filter>
<filter id="filter2_d_339_153" x="56" y="26" width="60" height="58" filterUnits="userSpaceOnUse" color-interpolation-filters="sRGB">
<feFlood flood-opacity="0" result="BackgroundImageFix"/>
<feColorMatrix in="SourceAlpha" type="matrix" values="0 0 0 0 0 0 0 0 0 0 0 0 0 0 0 0 0 0 127 0" result="hardAlpha"/>
<feOffset dy="4"/>
<feGaussianBlur stdDeviation="2"/>
<feComposite in2="hardAlpha" operator="out"/>
<feColorMatrix type="matrix" values="0 0 0 0 0 0 0 0 0 0 0 0 0 0 0 0 0 0 0.25 0"/>
<feBlend mode="normal" in2="BackgroundImageFix" result="effect1_dropShadow_339_153"/>
<feBlend mode="normal" in="SourceGraphic" in2="effect1_dropShadow_339_153" result="shape"/>
</filter>
</defs>
</svg>
